<svg height="512pt" viewBox="-31 0 512 512" width="512pt" xmlns="http://www.w3.org/2000/svg"><path d="m65.539062 67.4375h318.21875v38.125h-318.21875zm0 0" fill="#f4514a"/><path d="m65.539062 86.5h318.21875v19.0625h-318.21875zm0 0" fill="#d13030"/><path d="m65.539062 406.429688h318.21875v38.128906h-318.21875zm0 0" fill="#f4514a"/><path d="m65.539062 425.492188h318.21875v19.066406h-318.21875zm0 0" fill="#d13030"/><path d="m106.226562 24.453125v124.101563c0 13.5-10.953124 24.449218-24.460937 24.449218h-57.3125c-13.5 0-24.44921875-10.949218-24.44921875-24.449218v-124.101563c0-13.5 10.94921875-24.44921875 24.44921875-24.44921875h57.3125c13.507813 0 24.460937 10.94921875 24.460937 24.44921875zm0 0" fill="#3b3d4c"/><path d="m106.222656 363.449219v124.101562c0 13.5-10.949218 24.449219-24.460937 24.449219h-57.3125c-13.5 0-24.449219-10.949219-24.449219-24.449219v-124.101562c0-13.5 10.949219-24.449219 24.449219-24.449219h57.3125c13.511719 0 24.460937 10.949219 24.460937 24.449219zm0 0" fill="#3b3d4c"/><path d="m449.296875 363.449219v124.101562c0 13.5-10.949219 24.449219-24.460937 24.449219h-57.3125c-13.5 0-24.449219-10.949219-24.449219-24.449219v-124.101562c0-13.5 10.949219-24.449219 24.449219-24.449219h57.3125c13.511718 0 24.460937 10.949219 24.460937 24.449219zm0 0" fill="#3b3d4c"/><path d="m205.585938 89.355469h38.128906v325.050781h-38.128906zm0 0" fill="#f4514a"/><path d="m205.585938 89.355469h19.0625v325.050781h-19.0625zm0 0" fill="#d13030"/><path d="m449.300781 24.449219v124.101562c0 13.5-10.949219 24.449219-24.460937 24.449219h-57.3125c-13.5 0-24.449219-10.949219-24.449219-24.449219v-124.101562c0-13.5 10.949219-24.449219 24.449219-24.449219h57.3125c13.511718 0 24.460937 10.949219 24.460937 24.449219zm0 0" fill="#3b3d4c"/><path d="m267.839844 425.492188c0 23.855468-19.335938 43.191406-43.191406 43.191406-23.851563 0-43.1875-19.335938-43.1875-43.191406 0-23.851563 19.335937-43.1875 43.1875-43.1875 23.855468 0 43.191406 19.335937 43.191406 43.1875zm0 0" fill="#5c5e70"/><path d="m224.65625 468.683594c-23.855469 0-43.195312-19.332032-43.195312-43.1875 0-23.851563 19.339843-43.195313 43.195312-43.195313-9.027344 0-16.34375 19.34375-16.34375 43.195313 0 23.855468 7.316406 43.1875 16.34375 43.1875zm0 0" fill="#3b3d4c"/><path d="m267.839844 86.5c0 23.851562-19.335938 43.191406-43.191406 43.191406-23.851563 0-43.1875-19.339844-43.1875-43.191406s19.335937-43.1875 43.1875-43.1875c23.855468 0 43.191406 19.335938 43.191406 43.1875zm0 0" fill="#5c5e70"/><path d="m224.65625 129.6875c-23.855469 0-43.195312-19.332031-43.195312-43.1875s19.339843-43.195312 43.195312-43.195312c-9.027344 0-16.34375 19.339843-16.34375 43.195312s7.316406 43.1875 16.34375 43.1875zm0 0" fill="#3b3d4c"/><path d="m267.839844 280.703125c0-33.914063-19.335938-61.40625-43.191406-61.40625-23.851563 0-43.1875 27.492187-43.1875 61.40625 0 33.910156 19.335937 61.402344 43.1875 61.402344 23.855468 0 43.191406-27.492188 43.191406-61.402344zm0 0" fill="#5c5e70"/><path d="m224.65625 342.105469c-23.855469 0-43.195312-27.492188-43.195312-61.40625 0-33.910157 19.339843-61.398438 43.195312-61.398438-9.027344 0-16.34375 27.488281-16.34375 61.398438 0 33.914062 7.316406 61.40625 16.34375 61.40625zm0 0" fill="#3b3d4c"/><g fill="#5c5e70"><path d="m373.789062 408.476562c-4.3125 7.671876-6.601562 16.375-6.601562 25.183594 0 8.820313 2.289062 17.523438 6.601562 25.179688.03125.0625.074219.117187.105469.179687 3.40625 6.144531 4.871094 13.113281 4.355469 19.957031h-10.730469c-13.5 0-24.449219-10.949218-24.449219-24.460937v-91.070313c0-13.5 10.949219-24.453124 24.449219-24.453124h.523438c-.5625 3.0625-.855469 6.1875-.855469 9.320312 0 8.808594 2.289062 17.523438 6.601562 25.183594 3 5.339844 4.589844 11.386718 4.589844 17.5 0 6.101562-1.589844 12.152344-4.589844 17.480468zm0 0"/><path d="m405.023438 459.019531c3.40625 6.144531 4.867187 13.113281 4.355468 19.957031h-15.433594c.492188-9.582031-1.671874-19.269531-6.488281-27.824218-.03125-.0625-.074219-.125-.113281-.1875-2.925781-5.269532-4.484375-11.246094-4.484375-17.304688 0-6.113281 1.589844-12.164062 4.585937-17.492187 4.328126-7.667969 6.605469-16.371094 6.605469-25.171875 0-8.796875-2.277343-17.511719-6.605469-25.191406-2.996093-5.316407-4.585937-11.367188-4.585937-17.492188 0-2.570312.28125-5.140625.835937-7.625l.375-1.695312h15.109376c-.574219 3.082031-.867188 6.207031-.867188 9.320312 0 8.808594 2.289062 17.523438 6.605469 25.183594 3 5.339844 4.585937 11.386718 4.585937 17.5 0 6.101562-1.585937 12.152344-4.585937 17.480468-4.316407 7.671876-6.605469 16.375-6.605469 25.183594 0 8.820313 2.289062 17.523438 6.605469 25.179688.03125.0625.074219.117187.105469.179687zm0 0"/><path d="m449.292969 363.445312v91.070313c0 13.425781-10.8125 24.324219-24.21875 24.449219.488281-9.570313-1.671875-19.257813-6.488281-27.8125-.03125-.0625-.074219-.125-.117188-.1875-2.925781-5.269532-4.480469-11.246094-4.480469-17.304688 0-6.113281 1.585938-12.164062 4.585938-17.492187 4.324219-7.667969 6.601562-16.371094 6.601562-25.171875 0-8.796875-2.277343-17.511719-6.601562-25.191406-3-5.316407-4.585938-11.367188-4.585938-17.492188 0-2.539062.28125-5.109375.84375-7.625l.378907-1.695312h9.621093c13.511719 0 24.460938 10.953124 24.460938 24.453124zm0 0"/><path d="m30.71875 408.476562c-4.316406 7.671876-6.601562 16.375-6.601562 25.183594 0 8.820313 2.285156 17.523438 6.601562 25.179688.03125.0625.074219.117187.105469.179687 3.40625 6.144531 4.867187 13.113281 4.355469 19.957031h-10.730469c-13.5 0-24.449219-10.949218-24.449219-24.460937v-91.070313c0-13.5 10.949219-24.453124 24.449219-24.453124h.523437c-.5625 3.0625-.855468 6.1875-.855468 9.320312 0 8.808594 2.285156 17.523438 6.601562 25.183594 3 5.339844 4.585938 11.386718 4.585938 17.5 0 6.101562-1.585938 12.152344-4.585938 17.480468zm0 0"/><path d="m61.949219 459.019531c3.410156 6.144531 4.871093 13.113281 4.359375 19.957031h-15.433594c.492188-9.582031-1.671875-19.269531-6.488281-27.824218-.03125-.0625-.074219-.125-.113281-.1875-2.925782-5.269532-4.484376-11.246094-4.484376-17.304688 0-6.113281 1.589844-12.164062 4.585938-17.492187 4.328125-7.667969 6.605469-16.371094 6.605469-25.171875 0-8.796875-2.277344-17.511719-6.605469-25.191406-2.996094-5.316407-4.585938-11.367188-4.585938-17.492188 0-2.570312.28125-5.140625.835938-7.625l.375-1.695312h15.109375c-.574219 3.082031-.867187 6.207031-.867187 9.320312 0 8.808594 2.289062 17.523438 6.605468 25.183594 2.996094 5.339844 4.585938 11.386718 4.585938 17.5 0 6.101562-1.589844 12.152344-4.585938 17.480468-4.316406 7.671876-6.605468 16.375-6.605468 25.183594 0 8.820313 2.289062 17.523438 6.605468 25.179688.03125.0625.070313.117187.101563.179687zm0 0"/><path d="m106.222656 363.445312v91.070313c0 13.425781-10.8125 24.324219-24.21875 24.449219.488282-9.570313-1.671875-19.257813-6.488281-27.8125-.035156-.0625-.074219-.125-.117187-.1875-2.925782-5.269532-4.480469-11.246094-4.480469-17.304688 0-6.113281 1.585937-12.164062 4.585937-17.492187 4.324219-7.667969 6.601563-16.371094 6.601563-25.171875 0-8.796875-2.277344-17.511719-6.601563-25.191406-3-5.316407-4.585937-11.367188-4.585937-17.492188 0-2.539062.28125-5.109375.84375-7.625l.378906-1.695312h9.621094c13.511719 0 24.460937 10.953124 24.460937 24.453124zm0 0"/><path d="m373.789062 69.488281c-4.3125 7.671875-6.601562 16.375-6.601562 25.183594 0 8.816406 2.289062 17.519531 6.601562 25.179687.03125.0625.074219.117188.105469.179688 3.40625 6.140625 4.871094 13.113281 4.355469 19.957031h-10.730469c-13.5 0-24.449219-10.953125-24.449219-24.460937v-91.074219c0-13.5 10.949219-24.44921875 24.449219-24.44921875h.523438c-.5625 3.06249975-.855469 6.18749975-.855469 9.32031275 0 8.808593 2.289062 17.523437 6.601562 25.183593 3 5.335938 4.589844 11.386719 4.589844 17.5 0 6.101563-1.589844 12.152344-4.589844 17.480469zm0 0"/><path d="m405.023438 120.03125c3.40625 6.140625 4.867187 13.113281 4.355468 19.957031h-15.433594c.492188-9.582031-1.671874-19.269531-6.488281-27.828125-.03125-.0625-.074219-.125-.113281-.1875-2.925781-5.265625-4.484375-11.242187-4.484375-17.300781 0-6.113281 1.589844-12.164063 4.585937-17.492187 4.328126-7.667969 6.605469-16.375 6.605469-25.171876 0-8.796874-2.277343-17.511718-6.605469-25.191406-2.996093-5.320312-4.585937-11.367187-4.585937-17.492187 0-2.570313.28125-5.140625.835937-7.628907l.375-1.69140575h15.109376c-.574219 3.08203175-.867188 6.20703175-.867188 9.32031275 0 8.808593 2.289062 17.523437 6.605469 25.183593 3 5.335938 4.585937 11.386719 4.585937 17.5 0 6.101563-1.585937 12.152344-4.585937 17.480469-4.316407 7.671875-6.605469 16.375-6.605469 25.183594 0 8.816406 2.289062 17.519531 6.605469 25.179687.03125.0625.074219.117188.105469.179688zm0 0"/><path d="m449.292969 24.453125v91.074219c0 13.425781-10.8125 24.324218-24.21875 24.449218.488281-9.570312-1.671875-19.257812-6.488281-27.816406-.03125-.0625-.074219-.125-.117188-.1875-2.925781-5.265625-4.480469-11.242187-4.480469-17.300781 0-6.113281 1.585938-12.164063 4.585938-17.492187 4.324219-7.667969 6.601562-16.375 6.601562-25.171876 0-8.796874-2.277343-17.511718-6.601562-25.191406-3-5.320312-4.585938-11.367187-4.585938-17.492187 0-2.539063.28125-5.109375.84375-7.628907l.378907-1.69140575h9.621093c13.511719 0 24.460938 10.94921875 24.460938 24.44921875zm0 0"/><path d="m30.71875 69.488281c-4.316406 7.671875-6.601562 16.375-6.601562 25.183594 0 8.816406 2.285156 17.519531 6.601562 25.179687.03125.0625.074219.117188.105469.179688 3.40625 6.140625 4.867187 13.113281 4.355469 19.957031h-10.730469c-13.5 0-24.449219-10.953125-24.449219-24.460937v-91.074219c0-13.5 10.949219-24.44921875 24.449219-24.44921875h.523437c-.5625 3.06249975-.855468 6.18749975-.855468 9.32031275 0 8.808593 2.285156 17.523437 6.601562 25.183593 3 5.335938 4.585938 11.386719 4.585938 17.5 0 6.101563-1.585938 12.152344-4.585938 17.480469zm0 0"/><path d="m61.949219 120.03125c3.410156 6.140625 4.871093 13.113281 4.359375 19.957031h-15.433594c.492188-9.582031-1.671875-19.269531-6.488281-27.828125-.03125-.0625-.074219-.125-.113281-.1875-2.925782-5.265625-4.484376-11.242187-4.484376-17.300781 0-6.113281 1.589844-12.164063 4.585938-17.492187 4.328125-7.667969 6.605469-16.375 6.605469-25.171876 0-8.796874-2.277344-17.511718-6.605469-25.191406-2.996094-5.320312-4.585938-11.367187-4.585938-17.492187 0-2.570313.28125-5.140625.835938-7.628907l.375-1.69140575h15.109375c-.574219 3.08203175-.867187 6.20703175-.867187 9.32031275 0 8.808593 2.289062 17.523437 6.605468 25.183593 2.996094 5.335938 4.585938 11.386719 4.585938 17.5 0 6.101563-1.589844 12.152344-4.585938 17.480469-4.316406 7.671875-6.605468 16.375-6.605468 25.183594 0 8.816406 2.289062 17.519531 6.605468 25.179687.03125.0625.070313.117188.101563.179688zm0 0"/><path d="m106.222656 24.453125v91.074219c0 13.425781-10.8125 24.324218-24.21875 24.449218.488282-9.570312-1.671875-19.257812-6.488281-27.816406-.035156-.0625-.074219-.125-.117187-.1875-2.925782-5.265625-4.480469-11.242187-4.480469-17.300781 0-6.113281 1.585937-12.164063 4.585937-17.492187 4.324219-7.667969 6.601563-16.375 6.601563-25.171876 0-8.796874-2.277344-17.511718-6.601563-25.191406-3-5.320312-4.585937-11.367187-4.585937-17.492187 0-2.539063.28125-5.109375.84375-7.628907l.378906-1.69140575h9.621094c13.511719 0 24.460937 10.94921875 24.460937 24.44921875zm0 0"/></g></svg>