<svg height="512pt" viewBox="0 -45 512 512" width="512pt" xmlns="http://www.w3.org/2000/svg"><path d="m512 182.664062v47.386719c0 14.167969-11.484375 25.652344-25.652344 25.652344h-88.710937v-98.691406h88.710937c14.167969 0 25.652344 11.484375 25.652344 25.652343zm0 0" fill="#3b3d4c"/><path d="m512 182.667969v23.332031c0 14.160156-11.484375 25.644531-25.652344 25.644531h-61.859375v-74.628906h61.859375c14.171875 0 25.652344 11.484375 25.652344 25.652344zm0 0" fill="#5c5e70"/><path d="m413.308594 157.011719v207.039062c0 32.503907-26.351563 58.855469-58.859375 58.855469h-295.589844c-32.507813 0-58.859375-26.351562-58.859375-58.855469v-207.039062c0-32.503907 26.351562-58.855469 58.859375-58.855469h295.589844c32.507812 0 58.859375 26.351562 58.859375 58.855469zm0 0" fill="#3b3d4c"/><path d="m413.308594 157.011719v187.632812c0 32.507813-26.351563 58.859375-58.859375 58.859375h-295.589844c-32.507813 0-58.859375-26.351562-58.859375-58.859375v-187.632812c0-32.503907 26.351562-58.855469 58.859375-58.855469h295.589844c32.507812 0 58.859375 26.351562 58.859375 58.855469zm0 0" fill="#5c5e70"/><path d="m58.859375 370.667969c-3.648437 0-6.617187-2.96875-6.617187-6.617188v-207.035156c0-3.648437 2.96875-6.617187 6.617187-6.617187h295.589844c3.648437 0 6.617187 2.96875 6.617187 6.617187v207.035156c0 3.648438-2.96875 6.617188-6.617187 6.617188zm0 0" fill="#e6e6e6"/><path d="m354.449219 378.503906h-295.589844c-7.972656 0-14.453125-6.484375-14.453125-14.453125v-207.035156c0-7.96875 6.480469-14.457031 14.453125-14.457031h295.589844c7.972656 0 14.453125 6.484375 14.453125 14.457031v207.035156c0 7.96875-6.484375 14.453125-14.453125 14.453125zm-294.371094-15.671875h293.152344v-204.597656h-293.152344zm0 0" fill="#3b3d4c"/><path d="m290.824219 312.378906h24.179687l4.195313-24.679687 2.078125-12.246094c.105468-.628906.175781-1.261719.207031-1.894531.292969-6.105469-2.984375-11.941406-8.550781-14.722656-24.570313-12.261719-54.015625-11.796876-54.015625-11.796876l-19.355469-38.480468c-4.4375-8.835938-13.480469-14.40625-23.367188-14.40625h-65.246093c-14.730469 0-27.136719 11.019531-28.871094 25.648437l-3.226563 27.238281-12.652343 10.570313c-4.027344 3.367187-6.292969 8.320313-6.292969 13.476563 0 .921874.066406 1.851562.21875 2.78125l2.683594 16.71875 3.5 21.792968h16.121094" fill="#f4514a"/><path d="m260.601562 252.269531h-141.769531l.011719-.011719 3.226562-27.230468c1.734376-14.636719 14.136719-25.652344 28.871094-25.652344h65.253906c9.882813 0 18.921876 5.570312 23.363282 14.410156l19.351562 38.472656s.597656-.011718 1.691406.011719zm0 0" fill="#d4eff4"/><path d="m258.925781 260.101562c-2.867187 0-5.632812-1.578124-7.007812-4.316406l-19.355469-38.480468c-3.128906-6.226563-9.398438-10.089844-16.367188-10.089844h-65.246093c-10.753907 0-19.820313 8.054687-21.089844 18.738281l-3.226563 27.230469c-.507812 4.300781-4.410156 7.371094-8.703124 6.863281-4.296876-.511719-7.371094-4.40625-6.859376-8.707031l3.222657-27.234375c2.207031-18.566407 17.964843-32.566407 36.65625-32.566407h65.246093c12.929688 0 24.566407 7.175782 30.371094 18.722657l19.351563 38.480469c1.945312 3.863281.386719 8.574218-3.476563 10.519531-1.128906.570312-2.332031.839843-3.515625.839843zm0 0" fill="#f4514a"/><path d="m285.285156 313.839844c0 10.453125-8.472656 18.929687-18.929687 18.929687-10.453125 0-18.929688-8.476562-18.929688-18.929687 0-10.457032 8.476563-18.929688 18.929688-18.929688 10.457031 0 18.929687 8.472656 18.929687 18.929688zm0 0" fill="#fff"/><path d="m266.355469 340.605469c-14.757813 0-26.765625-12.007813-26.765625-26.765625 0-14.761719 12.007812-26.769532 26.765625-26.769532 14.761719 0 26.765625 12.007813 26.765625 26.769532 0 14.757812-12.003906 26.765625-26.765625 26.765625zm0-37.859375c-6.117188 0-11.089844 4.976562-11.089844 11.09375 0 6.117187 4.976563 11.089844 11.089844 11.089844 6.117187 0 11.09375-4.972657 11.09375-11.089844 0-6.117188-4.976563-11.09375-11.09375-11.09375zm0 0" fill="#3b3d4c"/><path d="m163.652344 313.839844c0 10.453125-8.476563 18.929687-18.929688 18.929687-10.457031 0-18.929687-8.476562-18.929687-18.929687 0-10.457032 8.472656-18.929688 18.929687-18.929688 10.453125 0 18.929688 8.472656 18.929688 18.929688zm0 0" fill="#fff"/><path d="m144.722656 340.605469c-14.757812 0-26.765625-12.007813-26.765625-26.765625 0-14.761719 12.007813-26.769532 26.765625-26.769532 14.757813 0 26.765625 12.007813 26.765625 26.769532 0 14.757812-12.007812 26.765625-26.765625 26.765625zm0-37.859375c-6.117187 0-11.09375 4.976562-11.09375 11.09375 0 6.117187 4.976563 11.089844 11.09375 11.089844 6.117188 0 11.09375-4.972657 11.09375-11.089844 0-6.117188-4.976562-11.09375-11.09375-11.09375zm0 0" fill="#3b3d4c"/><path d="m193.882812 260.105469c-4.332031 0-7.839843-3.511719-7.839843-7.839844v-52.890625c0-4.328125 3.507812-7.835938 7.839843-7.835938 4.328126 0 7.835938 3.507813 7.835938 7.835938v52.890625c0 4.328125-3.507812 7.839844-7.835938 7.839844zm0 0" fill="#f4514a"/><path d="m147.785156 260.105469c-4.328125 0-7.835937-3.511719-7.835937-7.839844v-52.890625c0-4.328125 3.507812-7.835938 7.835937-7.835938s7.835938 3.507813 7.835938 7.835938v52.890625c0 4.328125-3.507813 7.839844-7.835938 7.839844zm0 0" fill="#f4514a"/><g fill="#fbd25f"><path d="m267.976562 206.5c-4.332031 0-7.839843-3.507812-7.839843-7.835938v-27.914062c0-4.328125 3.507812-7.835938 7.839843-7.835938 4.328126 0 7.835938 3.507813 7.835938 7.835938v27.914062c0 4.328126-3.507812 7.835938-7.835938 7.835938zm0 0"/><path d="m325.285156 236.457031h-27.914062c-4.328125 0-7.835938-3.507812-7.835938-7.835937s3.507813-7.835938 7.835938-7.835938h27.914062c4.328125 0 7.835938 3.507813 7.835938 7.835938s-3.507813 7.835937-7.835938 7.835937zm0 0"/><path d="m286.761719 217.390625c-2.003907 0-4.011719-.765625-5.542969-2.296875-3.058594-3.058594-3.058594-8.023438 0-11.082031l19.738281-19.738281c3.0625-3.058594 8.023438-3.058594 11.085938 0 3.058593 3.0625 3.058593 8.023437 0 11.082031l-19.742188 19.738281c-1.527343 1.53125-3.535156 2.296875-5.539062 2.296875zm0 0"/><path d="m388.847656 63.289062c-4.328125 0-7.835937-3.507812-7.835937-7.835937v-47.617187c0-4.328126 3.507812-7.835938 7.835937-7.835938s7.835938 3.507812 7.835938 7.835938v47.617187c0 4.328125-3.507813 7.835937-7.835938 7.835937zm0 0"/><path d="m486.605469 114.390625h-47.617188c-4.328125 0-7.835937-3.507813-7.835937-7.835937 0-4.328126 3.507812-7.839844 7.835937-7.839844h47.617188c4.328125 0 7.835937 3.511718 7.835937 7.839844 0 4.328124-3.507812 7.835937-7.835937 7.835937zm0 0"/><path d="m420.890625 81.867188c-2.003906 0-4.011719-.765626-5.542969-2.296876-3.058594-3.058593-3.058594-8.023437 0-11.082031l33.671875-33.667969c3.0625-3.0625 8.023438-3.0625 11.082031 0 3.0625 3.058594 3.0625 8.019532 0 11.082032l-33.667968 33.667968c-1.53125 1.53125-3.535156 2.296876-5.542969 2.296876zm0 0"/></g></svg>