<svg height="511pt" viewBox="0 -49 511.99747 511" width="511pt" xmlns="http://www.w3.org/2000/svg"><path d="m511.996094 58.011719-.179688.183593-52.621094 52.628907-16.027343-16.023438c-26.203125-26.203125-68.859375-26.203125-95.0625 0l-29.863281 29.863281-51.253907-10.566406-1.558593-42.246094 29.863281-29.851562c55.328125-55.332031 145.359375-55.332031 200.6875-.011719zm0 0" fill="#ccc"/><path d="m511.816406 58.195312-52.621094 52.628907-16.023437-16.023438c-26.207031-26.203125-68.859375-26.203125-95.066406 0l-29.863281 29.863281-30.910157-30.910156 29.863281-29.863281c53.347657-53.355469 138.957032-55.257813 194.621094-5.695313zm0 0" fill="#e6e6e6"/><path d="m288.480469 258.152344c-34.441407 0-62.460938-28.019532-62.460938-62.457032 0-5.582031 4.527344-10.113281 10.117188-10.113281 5.585937 0 10.113281 4.53125 10.113281 10.113281 0 23.285157 18.945312 42.230469 42.230469 42.230469 5.585937 0 10.113281 4.527344 10.113281 10.113281 0 5.585938-4.527344 10.113282-10.113281 10.113282zm0 0" fill="#ccc"/><path d="m85.074219 283.136719 44.777343 44.777343-85.074218 85.074219-44.777344-44.777343zm0 0" fill="#5c5e70"/><path d="m85.074219 283.132812 18.070312 18.074219-85.074219 85.074219-18.070312-18.074219zm0 0" fill="#3b3d4c"/><path d="m86.734375 250.554688 75.699219 75.699218-36.53125 36.53125-75.699219-75.699218zm0 0" fill="#e6e6e6"/><path d="m86.734375 250.554688 25.179687 25.179687-36.53125 36.53125-25.179687-25.179687zm0 0" fill="#ccc"/><path d="m370.246094 176.664062-104.816406-104.816406-160.410157 83.523438c-14.011719 7.292968-16.902343 26.09375-5.734375 37.261718l22.683594 22.6875-47.679688 47.679688 104.804688 104.804688c20.625 20.625 54.050781 20.625 74.675781 0l116.476563-116.476563c20.613281-20.613281 20.613281-54.050781 0-74.664063zm-30.183594 44.492188-63.847656 63.855469c-3.945313 3.949219-10.367188 3.949219-14.316406 0l-52.003907-52.003907 78.164063-78.160156 52.003906 51.988282c3.949219 3.949218 3.949219 10.375 0 14.320312zm0 0" fill="#f4514a"/><path d="m276.378906 345.195312c-20.621094 20.621094-54.050781 20.621094-74.671875 0l-104.804687-104.804687-22.613282 22.609375 104.804688 104.804688c20.621094 20.625 54.050781 20.625 74.671875 0l116.476563-116.476563zm0 0" fill="#d13030"/><path d="m144.582031 192.707031-22.683593-22.6875c-5.566407-5.5625-7.636719-13.023437-6.585938-20.007812l-10.292969 5.359375c-14.011719 7.292968-16.902343 26.09375-5.734375 37.261718l22.683594 22.6875zm0 0" fill="#d13030"/><path d="m422.160156 221.859375c0 .996094.011719 1.992187.042969 2.980469 1.472656 49.390625 75.957031 49.390625 77.425781 0 .03125-.992188.046875-1.984375.046875-2.980469 0-31.902344-15.210937-60.242187-38.757812-78.203125-23.550781 17.960938-38.757813 46.300781-38.757813 78.203125zm0 0" fill="#fbd25f"/><path d="m460.914062 261.878906c-18.992187 0-37.980468-12.34375-38.710937-37.039062-.03125-.992188-.042969-1.984375-.042969-2.984375 0-31.894531 15.203125-60.234375 38.761719-78.203125-9.324219 17.96875-15.335937 46.308594-15.335937 78.203125 0 1 0 1.992187.011718 2.984375.289063 24.695312 7.804688 37.039062 15.316406 37.039062zm0 0" fill="#f99041"/></svg>